<mxfile host="app.diagrams.net" modified="2023-08-30T12:10:52.622Z" agent="Mozilla/5.0 (Macintosh; Intel Mac OS X 10_15_7) AppleWebKit/537.36 (KHTML, like Gecko) Chrome/115.0.0.0 Safari/537.36" etag="dSIOgV0m2lrEjL97q6LI" version="21.6.8" type="github">
  <diagram name="Page-1" id="UylE4nt9vGS-XkBwLtvB">
    <mxGraphModel dx="1306" dy="744" grid="1" gridSize="10" guides="1" tooltips="1" connect="1" arrows="1" fold="1" page="1" pageScale="1" pageWidth="827" pageHeight="1169" math="0" shadow="0">
      <root>
        <mxCell id="0" />
        <mxCell id="1" parent="0" />
        <mxCell id="0-XJ6ZV1Iwe7BIil74GJ-9" style="edgeStyle=orthogonalEdgeStyle;rounded=0;orthogonalLoop=1;jettySize=auto;html=1;exitX=-0.062;exitY=0.625;exitDx=0;exitDy=0;exitPerimeter=0;labelBackgroundColor=none;strokeColor=#788AA3;fontColor=default;fontStyle=1" parent="1" source="0-XJ6ZV1Iwe7BIil74GJ-8" target="0-XJ6ZV1Iwe7BIil74GJ-5" edge="1">
          <mxGeometry relative="1" as="geometry" />
        </mxCell>
        <mxCell id="bytqDrpdBHM-UTYLoQuf-11" style="edgeStyle=orthogonalEdgeStyle;rounded=0;orthogonalLoop=1;jettySize=auto;html=1;entryX=0;entryY=0.5;entryDx=0;entryDy=0;labelBackgroundColor=none;strokeColor=#788AA3;fontColor=default;fontStyle=1" parent="1" source="bytqDrpdBHM-UTYLoQuf-1" target="0-XJ6ZV1Iwe7BIil74GJ-4" edge="1">
          <mxGeometry relative="1" as="geometry">
            <mxPoint x="290" y="180" as="targetPoint" />
          </mxGeometry>
        </mxCell>
        <mxCell id="bytqDrpdBHM-UTYLoQuf-1" value="Controller" style="whiteSpace=wrap;html=1;aspect=fixed;labelBackgroundColor=none;fillColor=#B2C9AB;strokeColor=#788AA3;fontColor=#46495D;fontStyle=1" parent="1" vertex="1">
          <mxGeometry x="120" y="140" width="80" height="80" as="geometry" />
        </mxCell>
        <mxCell id="0-XJ6ZV1Iwe7BIil74GJ-1" value="Java Bean&lt;br&gt;" style="whiteSpace=wrap;html=1;aspect=fixed;labelBackgroundColor=none;fillColor=#B2C9AB;strokeColor=#788AA3;fontColor=#46495D;fontStyle=1" parent="1" vertex="1">
          <mxGeometry x="50" y="50" width="80" height="80" as="geometry" />
        </mxCell>
        <mxCell id="0-XJ6ZV1Iwe7BIil74GJ-3" style="edgeStyle=orthogonalEdgeStyle;rounded=0;orthogonalLoop=1;jettySize=auto;html=1;entryX=0;entryY=0.5;entryDx=0;entryDy=0;exitX=0.5;exitY=0.5;exitDx=0;exitDy=0;exitPerimeter=0;labelBackgroundColor=none;strokeColor=#788AA3;fontColor=default;fontStyle=1" parent="1" source="0-XJ6ZV1Iwe7BIil74GJ-2" target="bytqDrpdBHM-UTYLoQuf-1" edge="1">
          <mxGeometry relative="1" as="geometry" />
        </mxCell>
        <mxCell id="0-XJ6ZV1Iwe7BIil74GJ-2" value="Actor" style="shape=umlActor;verticalLabelPosition=bottom;verticalAlign=top;html=1;outlineConnect=0;labelBackgroundColor=none;fillColor=#B2C9AB;strokeColor=#788AA3;fontColor=#46495D;fontStyle=1" parent="1" vertex="1">
          <mxGeometry x="30" y="180" width="40" height="60" as="geometry" />
        </mxCell>
        <mxCell id="0-XJ6ZV1Iwe7BIil74GJ-7" style="edgeStyle=orthogonalEdgeStyle;rounded=0;orthogonalLoop=1;jettySize=auto;html=1;entryX=0.5;entryY=1;entryDx=0;entryDy=0;entryPerimeter=0;labelBackgroundColor=none;strokeColor=#788AA3;fontColor=default;fontStyle=1" parent="1" source="0-XJ6ZV1Iwe7BIil74GJ-4" target="0-XJ6ZV1Iwe7BIil74GJ-5" edge="1">
          <mxGeometry relative="1" as="geometry" />
        </mxCell>
        <mxCell id="0-XJ6ZV1Iwe7BIil74GJ-4" value="Command Gateway" style="whiteSpace=wrap;html=1;aspect=fixed;labelBackgroundColor=none;fillColor=#B2C9AB;strokeColor=#788AA3;fontColor=#46495D;fontStyle=1" parent="1" vertex="1">
          <mxGeometry x="270" y="140" width="80" height="80" as="geometry" />
        </mxCell>
        <mxCell id="0-XJ6ZV1Iwe7BIil74GJ-5" value="" style="shape=cylinder3;whiteSpace=wrap;html=1;boundedLbl=1;backgroundOutline=1;size=15;rotation=90;labelBackgroundColor=none;fillColor=#B2C9AB;strokeColor=#788AA3;fontColor=#46495D;fontStyle=1" parent="1" vertex="1">
          <mxGeometry x="470" y="130" width="60" height="100" as="geometry" />
        </mxCell>
        <mxCell id="0-XJ6ZV1Iwe7BIil74GJ-6" value="Command Bus" style="text;html=1;strokeColor=none;fillColor=none;align=center;verticalAlign=middle;whiteSpace=wrap;rounded=0;labelBackgroundColor=none;fontColor=#46495D;fontStyle=1" parent="1" vertex="1">
          <mxGeometry x="450" y="110" width="100" height="30" as="geometry" />
        </mxCell>
        <mxCell id="0-XJ6ZV1Iwe7BIil74GJ-13" style="edgeStyle=orthogonalEdgeStyle;rounded=0;orthogonalLoop=1;jettySize=auto;html=1;entryX=0;entryY=0.5;entryDx=0;entryDy=0;entryPerimeter=0;labelBackgroundColor=none;strokeColor=#788AA3;fontColor=default;fontStyle=1" parent="1" source="0-XJ6ZV1Iwe7BIil74GJ-8" target="0-XJ6ZV1Iwe7BIil74GJ-12" edge="1">
          <mxGeometry relative="1" as="geometry" />
        </mxCell>
        <mxCell id="0-XJ6ZV1Iwe7BIil74GJ-8" value="Command Handler" style="whiteSpace=wrap;html=1;aspect=fixed;labelBackgroundColor=none;fillColor=#B2C9AB;strokeColor=#788AA3;fontColor=#46495D;fontStyle=1" parent="1" vertex="1">
          <mxGeometry x="620" y="130" width="80" height="80" as="geometry" />
        </mxCell>
        <mxCell id="0-XJ6ZV1Iwe7BIil74GJ-10" value="Dispatch" style="text;html=1;strokeColor=none;fillColor=none;align=center;verticalAlign=middle;whiteSpace=wrap;rounded=0;labelBackgroundColor=none;fontColor=#46495D;fontStyle=1" parent="1" vertex="1">
          <mxGeometry x="350" y="180" width="100" height="30" as="geometry" />
        </mxCell>
        <mxCell id="0-XJ6ZV1Iwe7BIil74GJ-11" value="consume" style="text;html=1;strokeColor=none;fillColor=none;align=center;verticalAlign=middle;whiteSpace=wrap;rounded=0;labelBackgroundColor=none;fontColor=#46495D;fontStyle=1" parent="1" vertex="1">
          <mxGeometry x="540" y="180" width="100" height="30" as="geometry" />
        </mxCell>
        <mxCell id="0-XJ6ZV1Iwe7BIil74GJ-12" value="" style="shape=cylinder3;whiteSpace=wrap;html=1;boundedLbl=1;backgroundOutline=1;size=15;rotation=90;labelBackgroundColor=none;fillColor=#B2C9AB;strokeColor=#788AA3;fontColor=#46495D;fontStyle=1" parent="1" vertex="1">
          <mxGeometry x="630" y="280" width="60" height="100" as="geometry" />
        </mxCell>
        <mxCell id="0-XJ6ZV1Iwe7BIil74GJ-15" value="" style="edgeStyle=orthogonalEdgeStyle;rounded=0;orthogonalLoop=1;jettySize=auto;html=1;labelBackgroundColor=none;strokeColor=#788AA3;fontColor=default;fontStyle=1" parent="1" source="0-XJ6ZV1Iwe7BIil74GJ-14" target="0-XJ6ZV1Iwe7BIil74GJ-12" edge="1">
          <mxGeometry relative="1" as="geometry" />
        </mxCell>
        <mxCell id="0-XJ6ZV1Iwe7BIil74GJ-14" value="Event &lt;br&gt;Handler" style="whiteSpace=wrap;html=1;aspect=fixed;labelBackgroundColor=none;fillColor=#B2C9AB;strokeColor=#788AA3;fontColor=#46495D;fontStyle=1" parent="1" vertex="1">
          <mxGeometry x="440" y="290" width="80" height="80" as="geometry" />
        </mxCell>
        <mxCell id="0-XJ6ZV1Iwe7BIil74GJ-16" value="Event Store" style="text;html=1;strokeColor=none;fillColor=none;align=center;verticalAlign=middle;whiteSpace=wrap;rounded=0;labelBackgroundColor=none;fontColor=#46495D;fontStyle=1" parent="1" vertex="1">
          <mxGeometry x="610" y="360" width="100" height="30" as="geometry" />
        </mxCell>
        <mxCell id="0-XJ6ZV1Iwe7BIil74GJ-17" value="Dispatch" style="text;html=1;strokeColor=none;fillColor=none;align=center;verticalAlign=middle;whiteSpace=wrap;rounded=0;labelBackgroundColor=none;fontColor=#46495D;fontStyle=1" parent="1" vertex="1">
          <mxGeometry x="640" y="240" width="100" height="30" as="geometry" />
        </mxCell>
        <mxCell id="0-XJ6ZV1Iwe7BIil74GJ-18" value="consume" style="text;html=1;strokeColor=none;fillColor=none;align=center;verticalAlign=middle;whiteSpace=wrap;rounded=0;labelBackgroundColor=none;fontColor=#46495D;fontStyle=1" parent="1" vertex="1">
          <mxGeometry x="520" y="330" width="100" height="30" as="geometry" />
        </mxCell>
        <mxCell id="0-XJ6ZV1Iwe7BIil74GJ-23" style="edgeStyle=orthogonalEdgeStyle;rounded=0;orthogonalLoop=1;jettySize=auto;html=1;exitX=-0.062;exitY=0.625;exitDx=0;exitDy=0;exitPerimeter=0;labelBackgroundColor=none;strokeColor=#788AA3;fontColor=default;fontStyle=1" parent="1" source="0-XJ6ZV1Iwe7BIil74GJ-34" target="0-XJ6ZV1Iwe7BIil74GJ-31" edge="1">
          <mxGeometry relative="1" as="geometry" />
        </mxCell>
        <mxCell id="0-XJ6ZV1Iwe7BIil74GJ-24" style="edgeStyle=orthogonalEdgeStyle;rounded=0;orthogonalLoop=1;jettySize=auto;html=1;entryX=0;entryY=0.5;entryDx=0;entryDy=0;labelBackgroundColor=none;strokeColor=#788AA3;fontColor=default;fontStyle=1" parent="1" source="0-XJ6ZV1Iwe7BIil74GJ-25" target="0-XJ6ZV1Iwe7BIil74GJ-30" edge="1">
          <mxGeometry relative="1" as="geometry">
            <mxPoint x="305" y="560" as="targetPoint" />
          </mxGeometry>
        </mxCell>
        <mxCell id="0-XJ6ZV1Iwe7BIil74GJ-25" value="Rest&lt;br&gt;Controller" style="whiteSpace=wrap;html=1;aspect=fixed;labelBackgroundColor=none;fillColor=#B2C9AB;strokeColor=#788AA3;fontColor=#46495D;fontStyle=1" parent="1" vertex="1">
          <mxGeometry x="135" y="520" width="80" height="80" as="geometry" />
        </mxCell>
        <mxCell id="0-XJ6ZV1Iwe7BIil74GJ-29" style="edgeStyle=orthogonalEdgeStyle;rounded=0;orthogonalLoop=1;jettySize=auto;html=1;entryX=0.5;entryY=1;entryDx=0;entryDy=0;entryPerimeter=0;labelBackgroundColor=none;strokeColor=#788AA3;fontColor=default;fontStyle=1" parent="1" source="0-XJ6ZV1Iwe7BIil74GJ-30" target="0-XJ6ZV1Iwe7BIil74GJ-31" edge="1">
          <mxGeometry relative="1" as="geometry" />
        </mxCell>
        <mxCell id="0-XJ6ZV1Iwe7BIil74GJ-30" value="Query Gateway" style="whiteSpace=wrap;html=1;aspect=fixed;labelBackgroundColor=none;fillColor=#B2C9AB;strokeColor=#788AA3;fontColor=#46495D;fontStyle=1" parent="1" vertex="1">
          <mxGeometry x="285" y="520" width="80" height="80" as="geometry" />
        </mxCell>
        <mxCell id="0-XJ6ZV1Iwe7BIil74GJ-31" value="" style="shape=cylinder3;whiteSpace=wrap;html=1;boundedLbl=1;backgroundOutline=1;size=15;rotation=90;labelBackgroundColor=none;fillColor=#B2C9AB;strokeColor=#788AA3;fontColor=#46495D;fontStyle=1" parent="1" vertex="1">
          <mxGeometry x="485" y="510" width="60" height="100" as="geometry" />
        </mxCell>
        <mxCell id="0-XJ6ZV1Iwe7BIil74GJ-32" value="Query Bus" style="text;html=1;strokeColor=none;fillColor=none;align=center;verticalAlign=middle;whiteSpace=wrap;rounded=0;labelBackgroundColor=none;fontColor=#46495D;fontStyle=1" parent="1" vertex="1">
          <mxGeometry x="465" y="490" width="100" height="30" as="geometry" />
        </mxCell>
        <mxCell id="0-XJ6ZV1Iwe7BIil74GJ-50" style="edgeStyle=orthogonalEdgeStyle;rounded=0;orthogonalLoop=1;jettySize=auto;html=1;strokeColor=#788AA3;fontColor=#46495D;fillColor=#B2C9AB;exitX=0.5;exitY=0;exitDx=0;exitDy=0;" parent="1" source="0-XJ6ZV1Iwe7BIil74GJ-45" target="0-XJ6ZV1Iwe7BIil74GJ-34" edge="1">
          <mxGeometry relative="1" as="geometry" />
        </mxCell>
        <mxCell id="0-XJ6ZV1Iwe7BIil74GJ-34" value="Query&lt;br&gt;Handler" style="whiteSpace=wrap;html=1;aspect=fixed;labelBackgroundColor=none;fillColor=#B2C9AB;strokeColor=#788AA3;fontColor=#46495D;fontStyle=1" parent="1" vertex="1">
          <mxGeometry x="630" y="510" width="80" height="80" as="geometry" />
        </mxCell>
        <mxCell id="0-XJ6ZV1Iwe7BIil74GJ-35" value="Dispatch" style="text;html=1;strokeColor=none;fillColor=none;align=center;verticalAlign=middle;whiteSpace=wrap;rounded=0;labelBackgroundColor=none;fontColor=#46495D;fontStyle=1" parent="1" vertex="1">
          <mxGeometry x="365" y="560" width="100" height="30" as="geometry" />
        </mxCell>
        <mxCell id="0-XJ6ZV1Iwe7BIil74GJ-36" value="consume" style="text;html=1;strokeColor=none;fillColor=none;align=center;verticalAlign=middle;whiteSpace=wrap;rounded=0;labelBackgroundColor=none;fontColor=#46495D;fontStyle=1" parent="1" vertex="1">
          <mxGeometry x="555" y="560" width="100" height="30" as="geometry" />
        </mxCell>
        <mxCell id="0-XJ6ZV1Iwe7BIil74GJ-55" style="edgeStyle=orthogonalEdgeStyle;rounded=0;orthogonalLoop=1;jettySize=auto;html=1;entryX=0.5;entryY=1;entryDx=0;entryDy=0;strokeColor=#788AA3;fontColor=#46495D;fillColor=#B2C9AB;" parent="1" source="0-XJ6ZV1Iwe7BIil74GJ-37" target="0-XJ6ZV1Iwe7BIil74GJ-45" edge="1">
          <mxGeometry relative="1" as="geometry" />
        </mxCell>
        <mxCell id="0-XJ6ZV1Iwe7BIil74GJ-37" value="Product DB" style="shape=cylinder3;whiteSpace=wrap;html=1;boundedLbl=1;backgroundOutline=1;size=15;rotation=0;labelBackgroundColor=none;fillColor=#B2C9AB;strokeColor=#788AA3;fontColor=#46495D;fontStyle=1" parent="1" vertex="1">
          <mxGeometry x="630" y="750" width="80" height="80" as="geometry" />
        </mxCell>
        <mxCell id="0-XJ6ZV1Iwe7BIil74GJ-45" value="JPA Repository" style="whiteSpace=wrap;html=1;aspect=fixed;labelBackgroundColor=none;fillColor=#B2C9AB;strokeColor=#788AA3;fontColor=#46495D;fontStyle=1" parent="1" vertex="1">
          <mxGeometry x="627.5" y="620" width="85" height="85" as="geometry" />
        </mxCell>
        <mxCell id="0-XJ6ZV1Iwe7BIil74GJ-52" value="" style="endArrow=classic;startArrow=classic;html=1;rounded=0;strokeColor=#788AA3;fontColor=#46495D;fillColor=#B2C9AB;entryX=0.5;entryY=1;entryDx=0;entryDy=0;entryPerimeter=0;" parent="1" target="0-XJ6ZV1Iwe7BIil74GJ-31" edge="1">
          <mxGeometry width="50" height="50" relative="1" as="geometry">
            <mxPoint x="364" y="560" as="sourcePoint" />
            <mxPoint x="414" y="510" as="targetPoint" />
          </mxGeometry>
        </mxCell>
        <mxCell id="0-XJ6ZV1Iwe7BIil74GJ-53" value="" style="endArrow=classic;startArrow=classic;html=1;rounded=0;strokeColor=#788AA3;fontColor=#46495D;fillColor=#B2C9AB;" parent="1" edge="1">
          <mxGeometry width="50" height="50" relative="1" as="geometry">
            <mxPoint x="565" y="560" as="sourcePoint" />
            <mxPoint x="630" y="560" as="targetPoint" />
          </mxGeometry>
        </mxCell>
        <mxCell id="0-XJ6ZV1Iwe7BIil74GJ-56" value="HTTP Client" style="whiteSpace=wrap;html=1;aspect=fixed;labelBackgroundColor=none;fillColor=#B2C9AB;strokeColor=#788AA3;fontColor=#46495D;fontStyle=1" parent="1" vertex="1">
          <mxGeometry x="135" y="670" width="80" height="80" as="geometry" />
        </mxCell>
        <mxCell id="0-XJ6ZV1Iwe7BIil74GJ-58" value="HTTP GET" style="text;html=1;strokeColor=none;fillColor=none;align=center;verticalAlign=middle;whiteSpace=wrap;rounded=0;labelBackgroundColor=none;fontColor=#46495D;fontStyle=1" parent="1" vertex="1">
          <mxGeometry x="160" y="630" width="100" height="30" as="geometry" />
        </mxCell>
        <mxCell id="0-XJ6ZV1Iwe7BIil74GJ-59" value="" style="endArrow=classic;startArrow=classic;html=1;rounded=0;strokeColor=#788AA3;fontColor=#46495D;fillColor=#B2C9AB;entryX=0.5;entryY=0;entryDx=0;entryDy=0;exitX=0.5;exitY=1;exitDx=0;exitDy=0;" parent="1" source="0-XJ6ZV1Iwe7BIil74GJ-25" target="0-XJ6ZV1Iwe7BIil74GJ-56" edge="1">
          <mxGeometry width="50" height="50" relative="1" as="geometry">
            <mxPoint x="150" y="630" as="sourcePoint" />
            <mxPoint x="251" y="630" as="targetPoint" />
          </mxGeometry>
        </mxCell>
      </root>
    </mxGraphModel>
  </diagram>
</mxfile>
